<svg xmlns="http://www.w3.org/2000/svg" xmlns:xlink="http://www.w3.org/1999/xlink" version="1.1" width="256" height="256" viewBox="0 0 256 256" xml:space="preserve">

<defs>
</defs>
<g style="stroke: none; stroke-width: 0; stroke-dasharray: none; stroke-linecap: butt; stroke-linejoin: miter; stroke-miterlimit: 10; fill: none; fill-rule: nonzero; opacity: 1;" transform="translate(1.4065934065934016 1.4065934065934016) scale(2.81 2.81)" >
	<ellipse cx="44.995999999999995" cy="82.095" rx="25.776" ry="7.325" style="stroke: none; stroke-width: 1; stroke-dasharray: none; stroke-linecap: butt; stroke-linejoin: miter; stroke-miterlimit: 10; fill: rgb(255,201,0); fill-rule: nonzero; opacity: 1;" transform=" matrix(1 0 0 1 0 0) "/>
	<path d="M 45 1 C 27.117 1 12.619 15.498 12.619 33.381 c 0 7.984 2.903 15.28 7.693 20.926 L 45 83.383 l 24.687 -29.077 c 4.79 -5.645 7.693 -12.942 7.693 -20.926 C 77.382 15.498 62.884 1 45 1 z" style="stroke: none; stroke-width: 1; stroke-dasharray: none; stroke-linecap: butt; stroke-linejoin: miter; stroke-miterlimit: 10; fill: rgb(107,166,205); fill-rule: nonzero; opacity: 1;" transform=" matrix(1 0 0 1 0 0) " stroke-linecap="round" />
	<circle cx="44.998000000000005" cy="32.268" r="22.468" style="stroke: none; stroke-width: 1; stroke-dasharray: none; stroke-linecap: butt; stroke-linejoin: miter; stroke-miterlimit: 10; fill: rgb(248,248,248); fill-rule: nonzero; opacity: 1;" transform="  matrix(1 0 0 1 0 0) "/>
	<path d="M 45 84.383 c -0.293 0 -0.572 -0.129 -0.762 -0.353 L 19.55 54.955 c -5.114 -6.029 -7.931 -13.69 -7.931 -21.574 C 11.619 14.975 26.594 0 45 0 C 53.917 0 62.3 3.472 68.604 9.777 c 6.305 6.305 9.777 14.688 9.776 23.604 c 0 7.884 -2.816 15.545 -7.931 21.573 L 45.763 84.03 C 45.573 84.254 45.294 84.383 45 84.383 z M 45 2 C 27.697 2 13.619 16.078 13.619 33.381 c 0 7.41 2.648 14.612 7.456 20.28 L 45 81.838 l 23.924 -28.179 c 4.809 -5.666 7.456 -12.868 7.456 -20.279 c 0 -8.382 -3.264 -16.262 -9.19 -22.189 C 61.263 5.264 53.383 2 45 2 z" style="stroke: none; stroke-width: 1; stroke-dasharray: none; stroke-linecap: butt; stroke-linejoin: miter; stroke-miterlimit: 10; fill: rgb(0,0,0); fill-rule: nonzero; opacity: 1;" transform=" matrix(1 0 0 1 0 0) " stroke-linecap="round" />
	<path d="M 45 55.734 c -12.94 0 -23.468 -10.528 -23.468 -23.468 S 32.06 8.798 45 8.798 s 23.468 10.528 23.468 23.468 S 57.94 55.734 45 55.734 z M 45 10.798 c -11.837 0 -21.468 9.631 -21.468 21.468 S 33.163 53.734 45 53.734 c 11.837 0 21.468 -9.631 21.468 -21.468 S 56.837 10.798 45 10.798 z" style="stroke: none; stroke-width: 1; stroke-dasharray: none; stroke-linecap: butt; stroke-linejoin: miter; stroke-miterlimit: 10; fill: rgb(0,0,0); fill-rule: nonzero; opacity: 1;" transform=" matrix(1 0 0 1 0 0) " stroke-linecap="round" />
	<path d="M 45 90 c -13.181 0 -26.524 -2.697 -26.524 -7.854 c 0 -3.468 5.883 -5.406 10.819 -6.422 c 0.539 -0.111 1.07 0.236 1.181 0.778 c 0.111 0.541 -0.237 1.069 -0.778 1.181 c -6.371 1.311 -9.222 3.186 -9.222 4.463 C 20.476 84.591 29.806 88 45 88 s 24.524 -3.409 24.524 -5.854 c 0 -1.277 -2.852 -3.152 -9.222 -4.463 c -0.541 -0.111 -0.89 -0.64 -0.778 -1.181 s 0.64 -0.886 1.181 -0.778 c 4.936 1.016 10.819 2.954 10.819 6.422 C 71.524 87.303 58.181 90 45 90 z" style="stroke: none; stroke-width: 1; stroke-dasharray: none; stroke-linecap: butt; stroke-linejoin: miter; stroke-miterlimit: 10; fill: rgb(0,0,0); fill-rule: nonzero; opacity: 1;" transform=" matrix(1 0 0 1 0 0) " stroke-linecap="round" />
	<polygon points="54,20.18 37.99,32.15 43.15,35.42 36,45.15 53.85,32.8 48.2,30.09 " style="stroke: none; stroke-width: 1; stroke-dasharray: none; stroke-linecap: butt; stroke-linejoin: miter; stroke-miterlimit: 10; fill: rgb(255,0,0); fill-rule: nonzero; opacity: 1;" transform="  matrix(1 0 0 1 0 0) "/>
	<path d="M 36 46.15 c -0.263 0 -0.523 -0.104 -0.717 -0.303 c -0.341 -0.351 -0.378 -0.896 -0.089 -1.289 l 6.512 -8.867 l -4.248 -2.703 c -0.277 -0.176 -0.45 -0.478 -0.463 -0.806 c -0.012 -0.328 0.138 -0.642 0.401 -0.838 l 16.006 -11.969 c 0.381 -0.285 0.911 -0.262 1.265 0.055 c 0.355 0.317 0.438 0.84 0.197 1.251 l -5.256 8.974 l 4.675 2.246 c 0.32 0.154 0.535 0.468 0.563 0.823 c 0.027 0.355 -0.135 0.698 -0.428 0.901 L 36.569 45.973 C 36.396 46.092 36.198 46.15 36 46.15 z M 39.753 32.079 l 3.928 2.499 c 0.234 0.148 0.395 0.387 0.446 0.659 c 0.051 0.272 -0.013 0.553 -0.177 0.776 l -3.614 4.921 l 11.528 -7.975 l -4.103 -1.971 c -0.251 -0.121 -0.441 -0.342 -0.522 -0.609 c -0.082 -0.267 -0.048 -0.556 0.093 -0.797 l 3.305 -5.642 L 39.753 32.079 z" style="stroke: none; stroke-width: 1; stroke-dasharray: none; stroke-linecap: butt; stroke-linejoin: miter; stroke-miterlimit: 10; fill: rgb(0,0,0); fill-rule: nonzero; opacity: 1;" transform=" matrix(1 0 0 1 0 0) " stroke-linecap="round" />
</g>
</svg>